<svg width="23" height="24" viewBox="0 0 23 24" fill="none" xmlns="http://www.w3.org/2000/svg">
<path d="M3.13123 23.6153H19.6095C21.3369 23.6153 22.7407 22.2115 22.7407 20.4841V4.88048C22.7407 3.15306 21.3369 1.74925 19.6095 1.74925H18.3675V0.874625C18.3675 0.393567 17.9739 0 17.4928 0C17.0118 0 16.6182 0.393567 16.6182 0.874625V1.74925H6.12253V0.874625C6.12253 0.393567 5.72889 0 5.24783 0C4.76677 0 4.3732 0.393567 4.3732 0.874625V1.74925H3.13123C1.40381 1.74925 0 3.15306 0 4.88048V20.4841C0 22.2115 1.40381 23.6153 3.13123 23.6153ZM1.74933 4.88048C1.74933 4.11956 2.37031 3.49857 3.13123 3.49857H4.3732V4.3732C4.3732 4.85426 4.76677 5.24782 5.24783 5.24782C5.72889 5.24782 6.12246 4.85426 6.12246 4.3732V3.49857H16.6182V4.3732C16.6182 4.85426 17.0118 5.24782 17.4928 5.24782C17.9739 5.24782 18.3674 4.85426 18.3674 4.3732V3.49857H19.6094C20.3703 3.49857 20.9913 4.11956 20.9913 4.88048V7.43446H1.74933V4.88048ZM1.74933 9.18371H20.9915V20.4841C20.9915 21.245 20.3705 21.866 19.6096 21.866H3.13123C2.37031 21.866 1.74933 21.245 1.74933 20.4841V9.18371Z" fill="#8094A4"/>
</svg>
