<svg width="17" height="10" viewBox="0 0 17 10" fill="none" xmlns="http://www.w3.org/2000/svg">
<path d="M0.308473 0.322888C-0.102824 0.753403 -0.102824 1.45141 0.308473 1.88192L7.71801 9.63723C7.72971 9.65077 7.74186 9.66408 7.75433 9.67714C7.909 9.83904 8.09993 9.93969 8.29973 9.97982C8.474 10.0151 8.65516 10.0041 8.82513 9.94671C8.9789 9.89479 9.12354 9.80492 9.24562 9.67711C9.25764 9.6645 9.26941 9.65166 9.28072 9.63861L16.6915 1.88196C17.1028 1.45144 17.1028 0.753436 16.6915 0.322919C16.2802 -0.107597 15.6133 -0.107597 15.202 0.322919L8.49998 7.33765L1.79803 0.322888C1.38667 -0.107629 0.719836 -0.107629 0.308473 0.322888Z" fill="#012A49"/>
</svg>
