<svg width="29" height="29" viewBox="0 0 29 29" fill="none" xmlns="http://www.w3.org/2000/svg">
<circle cx="6.59091" cy="6.59091" r="6.59091" fill="white"/>
<path opacity="0.2" fill-rule="evenodd" clip-rule="evenodd" d="M6.59091 28.0002C9.67868 28.0002 12.1818 25.497 12.1818 22.4093C12.1818 19.3215 9.67868 16.8184 6.59091 16.8184C3.50314 16.8184 1 19.3215 1 22.4093C1 25.497 3.50314 28.0002 6.59091 28.0002ZM6.59091 29.0002C10.231 29.0002 13.1818 26.0493 13.1818 22.4093C13.1818 18.7692 10.231 15.8184 6.59091 15.8184C2.95085 15.8184 0 18.7692 0 22.4093C0 26.0493 2.95085 29.0002 6.59091 29.0002Z" fill="white"/>
<path opacity="0.2" fill-rule="evenodd" clip-rule="evenodd" d="M22.4093 12.1818C25.497 12.1818 28.0002 9.67868 28.0002 6.59091C28.0002 3.50314 25.497 1 22.4093 1C19.3215 1 16.8184 3.50314 16.8184 6.59091C16.8184 9.67868 19.3215 12.1818 22.4093 12.1818ZM22.4093 13.1818C26.0493 13.1818 29.0002 10.231 29.0002 6.59091C29.0002 2.95085 26.0493 0 22.4093 0C18.7692 0 15.8184 2.95085 15.8184 6.59091C15.8184 10.231 18.7692 13.1818 22.4093 13.1818Z" fill="white"/>
<path opacity="0.2" fill-rule="evenodd" clip-rule="evenodd" d="M22.4093 28.0002C25.497 28.0002 28.0002 25.497 28.0002 22.4093C28.0002 19.3215 25.497 16.8184 22.4093 16.8184C19.3215 16.8184 16.8184 19.3215 16.8184 22.4093C16.8184 25.497 19.3215 28.0002 22.4093 28.0002ZM22.4093 29.0002C26.0493 29.0002 29.0002 26.0493 29.0002 22.4093C29.0002 18.7692 26.0493 15.8184 22.4093 15.8184C18.7692 15.8184 15.8184 18.7692 15.8184 22.4093C15.8184 26.0493 18.7692 29.0002 22.4093 29.0002Z" fill="white"/>
</svg>
