<svg width="29" height="29" viewBox="0 0 29 29" fill="none" xmlns="http://www.w3.org/2000/svg">
<circle cx="6.59091" cy="6.59091" r="6.59091" fill="white"/>
<circle cx="6.59091" cy="22.4093" r="6.59091" fill="white"/>
<circle cx="22.4093" cy="6.59091" r="6.59091" fill="white"/>
<path opacity="0.2" fill-rule="evenodd" clip-rule="evenodd" d="M22.4093 28.0002C25.497 28.0002 28.0002 25.497 28.0002 22.4093C28.0002 19.3215 25.497 16.8184 22.4093 16.8184C19.3215 16.8184 16.8184 19.3215 16.8184 22.4093C16.8184 25.497 19.3215 28.0002 22.4093 28.0002ZM22.4093 29.0002C26.0493 29.0002 29.0002 26.0493 29.0002 22.4093C29.0002 18.7692 26.0493 15.8184 22.4093 15.8184C18.7692 15.8184 15.8184 18.7692 15.8184 22.4093C15.8184 26.0493 18.7692 29.0002 22.4093 29.0002Z" fill="white"/>
</svg>
