<svg width="80" height="335" viewBox="0 0 80 335" fill="none" xmlns="http://www.w3.org/2000/svg">
<path d="M40.5 48.065C40.281 45.0877 40.0619 42.1103 40.0111 39.1224L40.0001 39L39.9889 39.0896L39.9897 39.0865C39.94 42.0865 39.7201 45.0758 39.5001 48.065C39.2501 51.4623 39.0001 54.8597 39.0001 58.2727V71.9615C38.9999 72.02 39 72.0786 39.0001 72.1372C39.0001 72.1665 39.0001 72.1957 39.0001 72.225V85.9138C38.9999 85.9723 39 86.0309 39.0001 86.0895C39.0001 86.1187 39.0001 86.148 39.0001 86.1773V99.8661C38.9999 99.9246 39 99.9832 39.0001 100.042C39.0001 100.071 39.0001 100.1 39.0001 100.13V113.818C38.9999 113.877 39 113.935 39.0001 113.994C39.0001 114.023 39.0001 114.053 39.0001 114.082V127.771C38.9999 127.829 39 127.888 39.0001 127.946C39.0001 127.976 39.0001 128.005 39.0001 128.034V141.723C38.9999 141.781 39 141.84 39.0001 141.899C39.0001 141.928 39.0001 141.957 39.0001 141.986V155.675C38.9999 155.734 39 155.792 39.0001 155.851C39.0001 155.88 39.0001 155.909 39.0001 155.939V169.628C38.9999 169.686 39 169.745 39.0001 169.803C39.0001 169.832 39.0001 169.862 39.0001 169.891V183.58C38.9999 183.638 39 183.697 39.0001 183.755C39.0001 183.785 39.0001 183.814 39.0001 183.843V197.532C38.9999 197.591 39 197.649 39.0001 197.708C39.0001 197.737 39.0001 197.766 39.0001 197.796V211.484C38.9999 211.543 39 211.602 39.0001 211.66C39.0001 211.689 39.0001 211.719 39.0001 211.748V225.437C38.9999 225.495 39 225.554 39.0001 225.612C39.0001 225.642 39.0001 225.671 39.0001 225.7V239.389C38.9999 239.447 39 239.506 39.0001 239.565C39.0001 239.594 39.0001 239.623 39.0001 239.652V253.341C38.9999 253.4 39 253.458 39.0001 253.517C39.0001 253.546 39.0001 253.575 39.0001 253.605V267.294C38.9999 267.352 39 267.411 39.0001 267.469C39.0001 267.498 39.0001 267.528 39.0001 267.557V281.246C38.9999 281.304 39 281.363 39.0001 281.422C39.0001 281.451 39.0001 281.48 39.0001 281.509V295.198C38.9999 295.257 39 295.315 39.0001 295.374C39.0001 295.403 39.0001 295.432 39.0001 295.462V309.15C38.9999 309.209 39 309.268 39.0001 309.326C39.0001 309.355 39.0001 309.385 39.0001 309.414V323.103C38.9999 323.161 39 323.22 39.0001 323.278C39.0001 323.308 39.0001 323.337 39.0001 323.366V335H40.9996L41 323.366C41 323.278 40.9998 323.191 40.9995 323.103L41 309.414C41 309.326 40.9998 309.238 40.9995 309.151L41 295.462C41 295.374 40.9998 295.286 40.9995 295.198L41 281.509C41 281.422 40.9998 281.334 40.9995 281.246L41 267.557C41 267.469 40.9998 267.381 40.9995 267.294L41 253.605C41 253.517 40.9998 253.429 40.9995 253.341L41 239.652C41 239.565 40.9998 239.477 40.9995 239.389L41 225.7C41 225.612 40.9998 225.525 40.9995 225.437L41 211.748C41 211.66 40.9998 211.572 40.9995 211.485L41 197.796C41 197.708 40.9998 197.62 40.9995 197.532L41 183.843C41 183.756 40.9998 183.668 40.9995 183.58L41 169.891C41 169.803 40.9998 169.715 40.9995 169.628L41 155.939C41 155.851 40.9998 155.763 40.9995 155.675L41 141.986C41 141.899 40.9998 141.811 40.9995 141.723L41 128.034C41 127.946 40.9998 127.859 40.9995 127.771L41 114.082C41 113.994 40.9998 113.906 40.9995 113.819L41 100.13C41 100.042 40.9998 99.954 40.9995 99.8663L41 86.1773C41 86.0895 40.9998 86.0017 40.9995 85.914L41 72.225C41 72.1372 40.9998 72.0494 40.9995 71.9617L41 58.2727C41 54.8597 40.75 51.4623 40.5 48.065Z" fill="#E5EEF9"/>
<path d="M40.1374 39.366C42.8516 41.7297 46.0519 43.6 49.2521 45.4703C52.9037 47.6043 56.5555 49.7385 59.485 52.6057L71.2348 64.1055C70.3669 65.1494 69.4363 66.16 68.4428 67.1324C67.4493 68.1047 66.4167 69.0156 65.3501 69.865L53.6003 58.3652C50.6707 55.498 48.4903 51.924 46.3098 48.35C44.3912 45.2053 42.4726 42.0606 40.0437 39.3974C40.0438 39.399 40.0439 39.4007 40.044 39.4024L40 39.2948L40.1374 39.366Z" fill="#E5EEF9"/>
<path d="M40.1478 39.4506C43.7545 39.2219 47.3486 38.2359 50.9425 37.25C55.0435 36.125 59.1445 35 63.2645 35L79.7886 35C79.9284 36.4793 80 37.9805 80 39.5C80 41.0195 79.9284 42.5207 79.7886 44L63.2645 44C59.1445 44 55.0436 42.875 50.9426 41.75C47.3342 40.7601 43.7257 39.7702 40.1044 39.5467C40.1057 39.548 40.1069 39.5492 40.1082 39.5504L40 39.5L40.1478 39.4506Z" fill="#E5EEF9"/>
<path d="M40.0727 39.1598C42.4878 36.5034 44.3988 33.3712 46.3097 30.2391C48.4902 26.6651 50.6707 23.0911 53.6002 20.2239L65.35 8.72412C66.4167 9.57348 67.4492 10.4844 68.4427 11.4567C69.4362 12.4291 70.3669 13.4397 71.2347 14.4836L59.485 25.9834C56.5554 28.8506 52.9037 30.9847 49.2521 33.1188C46.039 34.9966 42.8259 36.8744 40.1048 39.2516C40.1065 39.2515 40.1082 39.2514 40.1099 39.2513L40 39.2943L40.0727 39.1598Z" fill="#E5EEF9"/>
<path d="M39.956 38.8559C39.7528 35.3393 38.8764 31.8352 38 28.331C37 24.3326 36 20.3341 36 16.3171L36 0.20615C37.3149 0.0698432 38.6494 -2.26688e-07 40 -3.42251e-07C41.3506 -4.57814e-07 42.6851 0.0698427 44 0.206149L44 16.3171C44 20.3341 43 24.3325 42 28.331C41.1201 31.8492 40.2402 35.3674 40.0415 38.8982C40.0426 38.897 40.0437 38.8957 40.0448 38.8945L40 39L39.956 38.8559Z" fill="#E5EEF9"/>
<path d="M39.8606 39.2239C37.1464 36.8601 33.9462 34.9898 30.746 33.1196C27.0943 30.9855 23.4426 28.8514 20.513 25.9841L8.76326 14.4844C9.6311 13.4404 10.5618 12.4298 11.5553 11.4575C12.5488 10.4851 13.5813 9.57425 14.648 8.72488L26.3977 20.2246C29.3273 23.0919 31.5078 26.6658 33.6883 30.2398C35.6069 33.3845 37.5255 36.5292 39.9543 39.1925C39.9542 39.1908 39.9541 39.1892 39.9541 39.1875L39.998 39.2951L39.8606 39.2239Z" fill="#E5EEF9"/>
<path d="M39.8522 39.5494C36.2455 39.7781 32.6514 40.7641 29.0575 41.75C24.9565 42.875 20.8555 44 16.7355 44L0.211437 44C0.071636 42.5207 -3.99348e-07 41.0195 -6.02932e-07 39.5C-8.06517e-07 37.9805 0.0716352 36.4793 0.211436 35L16.7355 35C20.8555 35 24.9564 36.125 29.0574 37.25C32.6658 38.2399 36.2743 39.2298 39.8956 39.4533C39.8943 39.452 39.8931 39.4508 39.8918 39.4496L40 39.5L39.8522 39.5494Z" fill="#E5EEF9"/>
<path d="M39.9273 39.4291C37.5122 42.0855 35.6012 45.2177 33.6903 48.3498C31.5098 51.9237 29.3293 55.4978 26.3998 58.365L14.65 69.8648C13.5833 69.0154 12.5508 68.1045 11.5573 67.1322C10.5638 66.1598 9.63312 65.1492 8.76528 64.1053L20.515 52.6055C23.4446 49.7383 27.0963 47.6042 30.7479 45.4701C33.961 43.5923 37.1741 41.7145 39.8952 39.3373C39.8935 39.3374 39.8918 39.3375 39.8901 39.3376L40 39.2946L39.9273 39.4291Z" fill="#E5EEF9"/>
</svg>
