<svg width="38" height="38" viewBox="0 0 38 38" fill="none" xmlns="http://www.w3.org/2000/svg">
<path d="M37.8996 20.9655C37.966 20.3194 38 19.6637 38 19C38 18.3363 37.966 17.6806 37.8996 17.0345H30.0506C28.3383 17.0345 26.6328 17.4107 24.9282 17.8339C24.6847 17.8944 24.4412 17.9558 24.1977 18.0172C22.4837 18.4496 20.7697 18.882 19.0496 18.9796C20.3349 17.8323 21.8526 16.9261 23.3703 16.0199C25.0951 14.9899 26.82 13.9599 28.2038 12.5762L33.7533 7.02661C33.3584 6.54062 32.94 6.07451 32.4998 5.63003L32.37 5.50022C31.9256 5.06009 31.4596 4.64174 30.9737 4.24692L25.4241 9.7965C24.0403 11.1803 23.0104 12.9052 21.9804 14.63C21.0741 16.1479 20.1678 17.6657 19.0204 18.9511C19.1179 17.2307 19.5503 15.5165 19.9828 13.8023C20.4741 11.8543 20.9655 9.90635 20.9655 7.94938V0.100432C20.3194 0.0340272 19.6637 0 19 0C18.3363 0 17.6806 0.0340272 17.0345 0.100432V7.94938C17.0345 9.90635 17.5259 11.8543 18.0172 13.8023C18.4496 15.5163 18.882 17.2303 18.9796 18.9504C17.8323 17.6651 16.9261 16.1474 16.0199 14.6297C14.9899 12.9049 13.96 11.18 12.5762 9.79621L7.02661 4.24665C6.54061 4.64156 6.0745 5.06 5.63001 5.50024L5.50024 5.63001C5.0601 6.0744 4.64175 6.5404 4.24692 7.02628L9.7965 12.5759C11.1803 13.9596 12.9052 14.9896 14.63 16.0196C16.1478 16.9259 17.6657 17.8322 18.9511 18.9796C17.2307 18.8821 15.5165 18.4497 13.8023 18.0172C11.9761 17.5566 10.1498 17.0959 8.31621 17.0401C8.19396 17.0364 8.07169 17.0345 7.94938 17.0345H0.100432C0.0340272 17.6806 0 18.3363 0 19C0 19.6637 0.0340272 20.3194 0.100432 20.9655H7.94938C9.90634 20.9655 11.8543 20.4741 13.8023 19.9828C14.0178 19.9284 14.2333 19.874 14.4489 19.8203C15.9474 19.447 17.4466 19.1058 18.9504 19.0204C17.6651 20.1677 16.1474 21.0739 14.6298 21.9801C12.9049 23.0101 11.18 24.04 9.79621 25.4238L4.24665 30.9734C4.64153 31.4594 5.05994 31.9254 5.50014 32.3699L5.63011 32.4999C6.07446 32.94 6.54043 33.3583 7.02628 33.7531L12.5759 28.2035C13.9597 26.8197 14.9896 25.0948 16.0196 23.37C16.9259 21.8521 17.8322 20.3343 18.9796 19.0489C18.8821 20.7693 18.4497 22.4835 18.0172 24.1977C17.5259 26.1457 17.0345 28.0936 17.0345 30.0506V37.8996C17.6806 37.966 18.3363 38 19 38C19.6637 38 20.3194 37.966 20.9655 37.8996V30.0506C20.9655 28.0936 20.4741 26.1457 19.9828 24.1977C19.5504 22.4837 19.118 20.7697 19.0204 19.0496C20.1677 20.3349 21.0739 21.8526 21.9801 23.3703C23.0101 25.0951 24.04 26.82 25.4238 28.2038L30.9734 33.7533C31.4594 33.3585 31.9254 32.9401 32.3699 32.4999L32.4999 32.3699C32.94 31.9255 33.3583 31.4596 33.7531 30.9737L28.2035 25.4241C26.8197 24.0403 25.0948 23.0104 23.37 21.9804C21.8521 21.0741 20.3343 20.1678 19.0489 19.0204C20.553 19.1057 22.0523 19.4469 23.5511 19.8203C23.7658 19.8738 23.9811 19.9281 24.1958 19.9823L24.1977 19.9828C26.0239 20.4434 27.8502 20.9041 29.6838 20.9599C29.806 20.9636 29.9283 20.9655 30.0506 20.9655H37.8996Z" fill="white"/>
</svg>
