<svg width="40" height="40" viewBox="0 0 40 40" fill="none" xmlns="http://www.w3.org/2000/svg">
<path d="M39.8943 22.0685C39.9642 21.3883 40 20.6981 40 19.9995C40 19.3009 39.9642 18.6107 39.8943 17.9305H31.6322C29.8298 17.9305 28.0345 18.3266 26.2402 18.7721C25.9839 18.8357 25.7276 18.9004 25.4713 18.965C23.6671 19.4201 21.8629 19.8753 20.0522 19.978C21.4052 18.7704 23.0027 17.8164 24.6003 16.8625C26.4159 15.7784 28.2316 14.6942 29.6882 13.2376L35.5298 7.39594C35.1142 6.88437 34.6737 6.39373 34.2103 5.92586L34.0737 5.78922C33.6059 5.32592 33.1154 4.88556 32.6039 4.46995L26.7622 10.3116C25.3056 11.7682 24.2215 13.5839 23.1373 15.3996C22.1833 16.9973 21.2292 18.5949 20.0215 19.948C20.1241 18.1371 20.5793 16.3327 21.0345 14.5282C21.5517 12.4777 22.069 10.4273 22.069 8.36728V0.10523C21.3888 0.0353298 20.6986 -0.000488281 20 -0.000488281C19.3014 -0.000488281 18.6112 0.0353298 17.931 0.10523V8.36728C17.931 10.4272 18.4483 12.4777 18.9655 14.5282C19.4206 16.3324 19.8758 18.1366 19.9785 19.9473C18.7709 18.5943 17.8169 16.9968 16.863 15.3992C15.7789 13.5836 14.6947 11.7679 13.2381 10.3113L7.39643 4.46967C6.88485 4.88537 6.39421 5.32583 5.92633 5.78924L5.78973 5.92584C5.32643 6.39361 4.88605 6.88414 4.47044 7.3956L10.3121 13.2373C11.7687 14.6939 13.5844 15.7781 15.4 16.8622C16.9977 17.8162 18.5954 18.7703 19.9485 19.9781C18.1376 19.8754 16.3332 19.4202 14.5287 18.965C12.6064 18.4801 10.6841 17.9952 8.7539 17.9365C8.62523 17.9326 8.49651 17.9305 8.36777 17.9305H0.105718C0.0358181 18.6107 0 19.3009 0 19.9995C0 20.6981 0.0358181 21.3883 0.105718 22.0685H8.36777C10.4277 22.0685 12.4782 21.5512 14.5287 21.034C14.7556 20.9768 14.9825 20.9195 15.2094 20.863C16.7868 20.47 18.3648 20.1108 19.9478 20.021C18.5948 21.2286 16.9973 22.1826 15.3997 23.1365C13.5841 24.2207 11.7684 25.3048 10.3118 26.7614L4.47016 32.6031C4.88582 33.1146 5.32625 33.6052 5.78962 34.0731L5.92643 34.2099C6.39417 34.6732 6.88467 35.1135 7.39609 35.5291L13.2378 29.6874C14.6944 28.2308 15.7785 26.4151 16.8627 24.5995C17.8167 23.0018 18.7708 21.4041 19.9786 20.051C19.8759 21.8619 19.4207 23.6664 18.9655 25.4708C18.4483 27.5213 17.931 29.5718 17.931 31.6317V39.8938C18.6112 39.9637 19.3014 39.9995 20 39.9995C20.6986 39.9995 21.3888 39.9637 22.069 39.8938V31.6317C22.069 29.5718 21.5517 27.5213 21.0345 25.4708C20.5794 23.6666 20.1242 21.8624 20.0215 20.0517C21.2291 21.4047 22.1831 23.0022 23.137 24.5998C24.2211 26.4154 25.3053 28.2311 26.7619 29.6877L32.6036 35.5294C33.1151 35.1137 33.6057 34.6733 34.0736 34.2099L34.2104 34.0731C34.6736 33.6053 35.114 33.1148 35.5296 32.6034L29.6879 26.7618C28.2313 25.3051 26.4156 24.221 24.6 23.1368C23.0023 22.1828 21.4046 21.2288 20.0515 20.021C21.6347 20.1107 23.213 20.4699 24.7906 20.863C25.0167 20.9193 25.2433 20.9765 25.4693 21.0335L25.4713 21.034C27.3936 21.5189 29.316 22.0038 31.2461 22.0625C31.3748 22.0665 31.5035 22.0685 31.6322 22.0685H39.8943Z" fill="#B3E6FF"/>
</svg>
