<svg width="112" height="99" viewBox="0 0 112 99" fill="none" xmlns="http://www.w3.org/2000/svg">
<path d="M23.1363 90.1924H10.6606C9.68917 90.1924 8.87109 89.3245 8.87109 88.2267V52.7675C8.87109 51.6953 9.66361 50.8018 10.6606 50.8018H23.1363C24.1334 50.8018 24.9259 51.6697 24.9259 52.7675V88.2267C24.9259 89.3245 24.1334 90.1924 23.1363 90.1924ZM11.4276 87.6396H22.3694V53.3801H11.4276V87.6396Z" fill="#46587A"/>
<path d="M47.6788 88.2267C47.6788 88.6097 47.4487 88.916 47.193 88.916H34.7174C34.4361 88.916 34.2061 88.6097 34.2061 88.2267V30.7108C34.2061 30.3278 34.4361 30.0215 34.7174 30.0215H47.193C47.4743 30.0215 47.6788 30.3278 47.6788 30.7108V88.2267Z" fill="#E5EEF9"/>
<path d="M47.193 90.1925H34.7173C33.7458 90.1925 32.9277 89.3245 32.9277 88.2268V30.7108C32.9277 29.6386 33.7202 28.7451 34.7173 28.7451H47.193C48.1644 28.7451 48.9569 29.6131 48.9569 30.7108V88.2268C48.9569 89.299 48.1644 90.1925 47.193 90.1925ZM35.4842 87.6397H46.4005V31.298H35.4842V87.6141V87.6397Z" fill="#46587A"/>
<path d="M95.2555 90.1925H82.7798C81.7827 90.1925 80.9902 89.3245 80.9902 88.2268V46.9725C80.9902 45.8748 81.7827 45.0068 82.7798 45.0068H95.2555C96.2525 45.0068 97.0195 45.8748 97.0195 46.9725V88.2523C97.0195 89.3245 96.2269 90.218 95.2555 90.218V90.1925ZM83.5467 87.6396H94.463V47.5597H83.5467V87.6396Z" fill="#46587A"/>
<path d="M71.2242 90.1927H58.7485C57.7771 90.1927 56.959 89.3248 56.959 88.227V58.1288C56.959 57.0311 57.7515 56.1631 58.7485 56.1631H71.2242C72.2213 56.1631 73.0138 57.0311 73.0138 58.1288V88.227C73.0138 89.2992 72.2213 90.1927 71.2242 90.1927ZM59.5155 87.6399H70.4317V58.7159H59.5155V87.6399Z" fill="#46587A"/>
<path d="M16.8989 39.9268C12.7574 39.9268 9.38281 36.5571 9.38281 32.4214C9.38281 28.2858 12.7574 24.916 16.8989 24.916C21.0404 24.916 24.415 28.2858 24.415 32.4214C24.415 36.5571 21.0404 39.9268 16.8989 39.9268ZM16.8989 27.4689C14.1635 27.4689 11.9393 29.6899 11.9393 32.4214C11.9393 35.153 14.1635 37.374 16.8989 37.374C19.6344 37.374 21.8585 35.153 21.8585 32.4214C21.8585 29.6899 19.6344 27.4689 16.8989 27.4689Z" fill="#46587A"/>
<path d="M40.9292 15.0108C36.7877 15.0108 33.4131 11.6411 33.4131 7.50542C33.4131 3.36978 36.7877 0 40.9292 0C45.0707 0 48.4453 3.36978 48.4453 7.50542C48.4453 11.6411 45.0707 15.0108 40.9292 15.0108ZM40.9292 2.55286C38.1937 2.55286 35.9696 4.77385 35.9696 7.50542C35.9696 10.237 38.1937 12.458 40.9292 12.458C43.6646 12.458 45.8888 10.237 45.8888 7.50542C45.8888 4.77385 43.6646 2.55286 40.9292 2.55286Z" fill="#46587A"/>
<path d="M64.9858 40.795C60.8443 40.795 57.4697 37.4252 57.4697 33.2896C57.4697 29.154 60.8443 25.7842 64.9858 25.7842C69.1273 25.7842 72.5019 29.154 72.5019 33.2896C72.5019 37.4252 69.1273 40.795 64.9858 40.795ZM64.9858 28.337C62.2504 28.337 60.0262 30.558 60.0262 33.2896C60.0262 36.0212 62.2504 38.2421 64.9858 38.2421C67.7213 38.2421 69.9454 36.0212 69.9454 33.2896C69.9454 30.558 67.7213 28.337 64.9858 28.337Z" fill="#46587A"/>
<path d="M89.0171 23.8692C84.8755 23.8692 81.501 20.4995 81.501 16.3638C81.501 12.2282 84.8755 8.8584 89.0171 8.8584C93.1586 8.8584 96.5332 12.2282 96.5332 16.3638C96.5332 20.4995 93.1586 23.8692 89.0171 23.8692ZM89.0171 11.4113C86.2816 11.4113 84.0575 13.6323 84.0575 16.3638C84.0575 19.0954 86.2816 21.3164 89.0171 21.3164C91.7525 21.3164 93.9767 19.0954 93.9767 16.3638C93.9767 13.6323 91.7525 11.4113 89.0171 11.4113Z" fill="#46587A"/>
<path d="M20.0432 28.3369C19.7109 28.3369 19.3785 28.2093 19.1229 27.954C18.6372 27.4434 18.6372 26.652 19.1484 26.1415L35.2799 10.5945C35.7912 10.1095 36.5837 10.1095 37.095 10.6201C37.5808 11.1306 37.5808 11.922 37.0695 12.4326L20.938 27.9795C20.6823 28.2093 20.3756 28.3369 20.0432 28.3369Z" fill="#46587A"/>
<path d="M60.768 29.996C60.41 29.996 60.0266 29.8428 59.7709 29.5365L45.5568 12.3302C45.0966 11.7941 45.1733 10.9772 45.7358 10.5432C46.2726 10.0837 47.0907 10.1603 47.5253 10.7219L61.7394 27.9282C62.1996 28.4643 62.1229 29.2812 61.5605 29.7152C61.3304 29.9194 61.0236 29.996 60.7424 29.996H60.768Z" fill="#46587A"/>
<path d="M70.3293 31.4257C69.9458 31.4257 69.5367 31.247 69.3067 30.9151C68.8976 30.3535 68.9999 29.5366 69.5879 29.1281L83.3162 19.0954C83.8787 18.6869 84.6967 18.789 85.1058 19.3762C85.5148 19.9378 85.4126 20.7547 84.8246 21.1632L71.0962 31.1959C70.8661 31.3746 70.6105 31.4512 70.3548 31.4512L70.3293 31.4257Z" fill="#46587A"/>
<path d="M110.722 99.0001H1.27825C0.562429 99.0001 0 98.4385 0 97.7237C0 97.0089 0.562429 96.4473 1.27825 96.4473H110.722C111.438 96.4473 112 97.0089 112 97.7237C112 98.4385 111.438 99.0001 110.722 99.0001Z" fill="#46587A"/>
</svg>
