<svg width="95" height="96" viewBox="0 0 95 96" fill="none" xmlns="http://www.w3.org/2000/svg">
<path d="M66.2419 95.9048H28.7353V67.1695H0V29.6401H28.7353V0.904785H66.2419V29.6401H94.9772V67.1467H66.2419V95.8819V95.9048ZM31.0195 93.6206H63.9577V64.8853H92.693V31.9243H63.9577V3.18899H31.0195V31.9243H2.2842V64.8625H31.0195V93.5977V93.6206Z" fill="#46587A"/>
<path d="M47.489 64.7114C66.6992 31.3163 47.489 3.72314 47.489 3.72314C47.489 3.72314 28.2789 31.3163 47.489 64.7114Z" fill="#E5EEF9"/>
<path d="M47.4887 65.8535C47.0775 65.8535 46.7121 65.6251 46.5065 65.2825C27.1593 31.659 46.3694 3.35775 46.5522 3.08364C46.9862 2.46691 47.9912 2.46691 48.4252 3.08364C48.6308 3.35775 67.8181 31.6819 48.4709 65.2825C48.2653 65.6251 47.8999 65.8535 47.4887 65.8535ZM47.4887 5.91606C44.0167 11.9692 32.8698 35.1767 47.4887 62.3587C62.1076 35.1539 50.9607 11.9464 47.4887 5.91606Z" fill="#46587A"/>
<path d="M47.4894 65.9903C36.114 35.7246 7.97266 33.4404 7.97266 33.4404C7.97266 33.4404 15.6019 60.6224 47.4894 65.9903Z" fill="#E5EEF9"/>
<path d="M47.489 67.1325C47.489 67.1325 47.3519 67.1325 47.3062 67.1325C15.0761 61.6961 6.94436 34.0344 6.87583 33.7603C6.78446 33.3949 6.87583 33.0066 7.10425 32.7325C7.33267 32.4355 7.69815 32.2985 8.08646 32.3213C8.38341 32.3441 37.073 35.0167 48.5854 65.6021C48.7224 65.9904 48.6539 66.4244 48.4026 66.7214C48.1742 66.9955 47.8544 67.1325 47.5118 67.1325H47.489ZM9.6854 34.8568C11.9468 40.6586 21.0379 59.4576 45.6844 64.5057C35.9994 41.2754 15.8071 35.9532 9.6854 34.8568Z" fill="#46587A"/>
<path d="M47.4891 66.287C25.7892 59.0232 11.9697 73.4366 11.9697 73.4366C11.9697 73.4366 30.289 81.3856 47.4891 66.287Z" fill="#E5EEF9"/>
<path d="M23.8021 76.6118C16.6068 76.6118 11.6044 74.5103 11.5131 74.4647C11.1704 74.3276 10.9192 74.0078 10.8506 73.6423C10.7821 73.2769 10.8963 72.8886 11.1476 72.6373C11.2846 72.4774 25.7208 57.7671 47.8547 65.1908C48.243 65.3278 48.54 65.6476 48.6085 66.0588C48.6999 66.4699 48.54 66.8811 48.243 67.1324C39.6544 74.6702 30.7004 76.6118 23.8021 76.6118ZM14.1627 73.0028C18.8225 74.4647 32.048 77.16 45.1594 66.744C29.2156 62.2899 17.9317 69.8962 14.1627 73.0028Z" fill="#46587A"/>
<path d="M47.4893 65.9903C58.8646 35.7246 87.006 33.4404 87.006 33.4404C87.006 33.4404 79.3767 60.6224 47.4893 65.9903Z" fill="#E5EEF9"/>
<path d="M47.4891 67.1325C47.1464 67.1325 46.8266 66.9726 46.5982 66.7214C46.347 66.4016 46.2556 65.9676 46.4155 65.6021C57.9279 35.0167 86.6175 32.3441 86.9144 32.3213C87.3027 32.2985 87.6453 32.4355 87.8966 32.7325C88.125 33.0294 88.2164 33.4177 88.125 33.7603C88.0565 34.0344 79.9247 61.6961 47.6946 67.1325C47.6261 67.1325 47.5576 67.1325 47.5119 67.1325H47.4891ZM85.3155 34.8568C79.1938 35.9532 59.0014 41.2754 49.3164 64.5057C73.9401 59.4576 83.0541 40.6586 85.3155 34.8568Z" fill="#46587A"/>
<path d="M47.4883 66.287C69.1882 59.0232 83.0076 73.4366 83.0076 73.4366C83.0076 73.4366 64.6883 81.3856 47.4883 66.287Z" fill="#E5EEF9"/>
<path d="M71.1758 76.6118C64.2547 76.6118 55.3235 74.6702 46.7349 67.1324C46.4379 66.8583 46.278 66.4471 46.3694 66.0588C46.4608 65.6476 46.7349 65.3278 47.1232 65.1908C69.2343 57.7671 83.6933 72.4774 83.8303 72.6373C84.0816 72.9114 84.1958 73.2769 84.1273 73.6423C84.0588 74.0078 83.8075 74.3276 83.4649 74.4647C83.3735 74.5103 78.3711 76.6118 71.1758 76.6118ZM49.8414 66.744C62.9527 77.16 76.2011 74.4418 80.8609 72.9799C77.1376 69.8506 65.9907 62.2213 49.8414 66.744Z" fill="#46587A"/>
<path d="M47.4888 85.4975C46.8492 85.4975 46.3467 84.995 46.3467 84.3554V67.5894C46.3467 66.9498 46.8492 66.4473 47.4888 66.4473C48.1284 66.4473 48.6309 66.9498 48.6309 67.5894V84.3554C48.6309 84.995 48.1284 85.4975 47.4888 85.4975Z" fill="#46587A"/>
<path d="M56.032 80.2896C55.6665 80.2896 55.301 80.1069 55.0726 79.7643L46.5297 66.6073C46.1871 66.0819 46.347 65.3738 46.8723 65.0312C47.3977 64.6885 48.1058 64.8484 48.4484 65.3738L56.9913 78.5308C57.334 79.0562 57.1741 79.7643 56.6487 80.1069C56.466 80.2211 56.2376 80.2896 56.032 80.2896Z" fill="#46587A"/>
<path d="M38.9461 80.2896C38.7405 80.2896 38.5121 80.2211 38.3294 80.1069C37.804 79.7643 37.6441 79.0562 37.9867 78.5308L46.5296 65.3738C46.8723 64.8484 47.5804 64.6885 48.1057 65.0312C48.6311 65.3738 48.791 66.0819 48.4484 66.6073L39.9055 79.7643C39.677 80.1069 39.3116 80.2896 38.9461 80.2896Z" fill="#46587A"/>
</svg>
