<svg width="106" height="107" viewBox="0 0 106 107" fill="none" xmlns="http://www.w3.org/2000/svg">
<path d="M52.9873 53.9741C74.8513 53.9741 92.5655 36.2555 92.5655 14.3862C70.7015 14.3862 52.9873 32.1048 52.9873 53.9741Z" fill="#E5EEF9"/>
<path d="M52.9872 55.2714C52.261 55.2714 51.6904 54.7007 51.6904 53.9743C51.6904 31.4305 70.0271 13.0894 92.5654 13.0894C93.2916 13.0894 93.8622 13.6601 93.8622 14.3865C93.8622 36.9303 75.5255 55.2714 52.9872 55.2714ZM91.2427 15.7095C71.1942 16.384 54.9843 32.5979 54.31 52.6513C74.3584 51.9768 90.5683 35.7629 91.2427 15.7095Z" fill="#46587A"/>
<path d="M52.9873 53.9741C52.9873 75.8434 70.7015 93.562 92.5655 93.562C92.5655 71.6927 74.8513 53.9741 52.9873 53.9741Z" fill="#E5EEF9"/>
<path d="M92.5654 94.8593C70.0271 94.8593 51.6904 76.5182 51.6904 53.9744C51.6904 53.248 52.261 52.6772 52.9872 52.6772C75.5255 52.6772 93.8622 71.0184 93.8622 93.5622C93.8622 94.2886 93.2916 94.8593 92.5654 94.8593ZM54.31 55.2974C54.9843 75.3767 71.1942 91.5647 91.2427 92.2392C90.5683 72.1599 74.3584 55.9719 54.31 55.2974Z" fill="#46587A"/>
<path d="M52.9874 53.9741C52.9874 32.1048 35.2731 14.3862 13.4092 14.3862C13.4092 36.2555 31.1234 53.9741 52.9874 53.9741Z" fill="#E5EEF9"/>
<path d="M52.9873 55.2714C30.449 55.2714 12.1123 36.9303 12.1123 14.3865C12.1123 13.6601 12.6829 13.0894 13.4091 13.0894C35.9474 13.0894 54.2841 31.4305 54.2841 53.9743C54.2841 54.7007 53.7135 55.2714 52.9873 55.2714ZM14.7318 15.7095C15.4062 35.7888 31.6161 51.9768 51.6645 52.6513C50.9902 32.572 34.7803 16.384 14.7318 15.7095Z" fill="#46587A"/>
<path d="M52.9874 53.9741C31.1234 53.9741 13.4092 71.6927 13.4092 93.562C35.2731 93.562 52.9874 75.8434 52.9874 53.9741Z" fill="#E5EEF9"/>
<path d="M13.4091 94.8593C12.6829 94.8593 12.1123 94.2886 12.1123 93.5622C12.1123 71.0184 30.449 52.6772 52.9873 52.6772C53.7135 52.6772 54.2841 53.248 54.2841 53.9744C54.2841 76.5182 35.9474 94.8593 13.4091 94.8593ZM51.6645 55.2974C31.5902 55.9719 15.4062 72.1858 14.7318 92.2392C34.8062 91.5647 50.9902 75.3508 51.6645 55.2974Z" fill="#46587A"/>
<path d="M52.9867 107C52.5717 107 52.1826 106.793 51.9492 106.455L36.8545 85.8053C36.4396 85.2346 36.5692 84.4044 37.1398 83.9894C37.7104 83.5743 38.5404 83.704 38.9553 84.2747L53.0126 103.472L67.0698 84.2747C67.4848 83.704 68.3148 83.5743 68.8854 83.9894C69.4559 84.4044 69.5856 85.2346 69.1707 85.8053L54.076 106.455C53.8425 106.793 53.4535 107 53.0385 107H52.9867Z" fill="#46587A"/>
<path d="M84.058 70.3961C83.6689 70.3961 83.254 70.2145 83.0205 69.8513C82.6056 69.2805 82.7353 68.4504 83.3058 68.0353L102.524 53.9746L83.3058 39.9139C82.7353 39.4988 82.6056 38.6687 83.0205 38.098C83.4355 37.5272 84.2655 37.3975 84.8361 37.8126L105.481 52.911C105.818 53.1445 106 53.5336 106 53.9487C106 54.3637 105.792 54.7529 105.481 54.9864L84.8361 70.0847C84.6026 70.2663 84.3433 70.3442 84.058 70.3442V70.3961Z" fill="#46587A"/>
<path d="M21.9418 70.3959C21.6824 70.3959 21.3971 70.3181 21.1896 70.1365L0.518718 55.0381C0.181551 54.8046 0 54.4155 0 54.0004C0 53.5854 0.207487 53.1962 0.518718 52.9627L21.1637 37.8644C21.7343 37.4493 22.5642 37.579 22.9792 38.1497C23.3942 38.7204 23.2645 39.5506 22.6939 39.9657L3.50135 53.9745L22.7198 68.0352C23.2904 68.4503 23.4201 69.2804 23.0051 69.8511C22.7458 70.1884 22.3567 70.3959 21.9677 70.3959H21.9418Z" fill="#46587A"/>
<path d="M37.892 24.2186C37.6326 24.2186 37.3473 24.1408 37.1398 23.9592C36.5692 23.5441 36.4396 22.7139 36.8545 22.1432L51.9492 1.49318C52.442 0.81868 53.5572 0.81868 54.05 1.49318L69.1447 22.1432C69.5597 22.7139 69.43 23.5441 68.8594 23.9592C68.2888 24.3742 67.4589 24.2445 67.0439 23.6738L52.9867 4.45059L38.9294 23.6738C38.67 24.011 38.281 24.2186 37.892 24.2186Z" fill="#46587A"/>
<path d="M40.4599 67.6199C40.1227 67.6199 39.7855 67.4901 39.5521 67.2307C39.0334 66.7119 39.0334 65.9077 39.5521 65.3888L64.2172 40.7177C64.7359 40.1989 65.5399 40.1989 66.0586 40.7177C66.5773 41.2366 66.5773 42.0408 66.0586 42.5596L41.3936 67.2307C41.1342 67.4901 40.797 67.6199 40.4858 67.6199H40.4599Z" fill="#46587A"/>
<path d="M65.1249 67.6199C64.7878 67.6199 64.4506 67.4901 64.2172 67.2307L39.5521 42.5596C39.0334 42.0408 39.0334 41.2366 39.5521 40.7177C40.0708 40.1989 40.8749 40.1989 41.3936 40.7177L66.0586 65.3888C66.5773 65.9077 66.5773 66.7119 66.0586 67.2307C65.7992 67.4901 65.4621 67.6199 65.1509 67.6199H65.1249Z" fill="#46587A"/>
</svg>
