<svg width="103" height="91" viewBox="0 0 103 91" fill="none" xmlns="http://www.w3.org/2000/svg">
<path d="M75.472 91H55.6956C55.079 91 54.5945 90.5142 54.5945 89.8959V84.9937C54.3302 83.6908 52.5024 73.0914 58.7348 66.5331C62.7649 62.2933 66.4207 60.6372 69.0854 59.4448C70.5609 58.7823 71.7281 58.2523 72.4549 57.5015L80.2729 49.6624C82.233 47.6971 85.5363 47.4984 87.6946 49.1324L91.3944 43.5678C91.3503 42.3753 91.3063 38.4006 91.967 32.9905C92.3413 30.0094 93.4865 27.8675 95.4025 26.6088C98.3756 24.6435 102.031 25.7034 102.185 25.7476C102.648 25.8801 102.978 26.3217 102.978 26.8075L102.868 47.0126C102.868 47.1451 102.846 47.2776 102.802 47.388L96.6798 63.6845C96.6358 63.8391 96.5477 63.9716 96.4376 64.082L78.1588 82.4101C76.6832 83.8895 76.6612 84.9274 76.6612 84.9495L76.5731 89.9179C76.5731 90.5142 76.0666 91 75.472 91ZM56.7968 88.7918H74.3929L74.459 84.9495C74.459 84.9495 74.3929 83.0504 76.5951 80.8422L94.6978 62.6908L100.666 46.7918L100.776 27.6908C99.785 27.5583 98.0232 27.5141 96.6137 28.4416C95.2704 29.3249 94.4555 30.9369 94.1692 33.2334C93.3984 39.4384 93.6187 43.7665 93.6187 43.8107C93.6187 44.0536 93.5746 44.2744 93.4425 44.4731L89.2362 50.8328C89.7427 51.694 90.0069 52.6656 90.0069 53.7034C90.0069 55.2271 89.4123 56.6624 88.3332 57.7444L77.4981 68.6088C77.0576 69.0504 76.3749 69.0504 75.9345 68.6088C75.494 68.1671 75.494 67.4826 75.9345 67.041L86.7696 56.1766C87.4303 55.5142 87.7827 54.6309 87.7827 53.7034C87.7827 52.776 87.4303 51.8927 86.7696 51.2302C85.4483 49.9053 83.1579 49.9053 81.8365 51.2302L74.0185 59.0694C73.0055 60.0851 71.596 60.7255 69.9883 61.4542C67.3456 62.6466 64.0642 64.1261 60.3204 68.0788C54.6165 74.063 56.7307 84.5741 56.7527 84.6845C56.7527 84.7507 56.7748 84.8391 56.7748 84.9053V88.8138L56.7968 88.7918Z" fill="#46587A"/>
<path d="M47.3047 91.0001H27.5283C26.9337 91.0001 26.4272 90.5143 26.4272 89.9181L26.3391 84.9938C26.3391 84.9938 26.3171 83.8897 24.8416 82.4102L6.56275 64.0821C6.45264 63.9717 6.36455 63.8392 6.3205 63.6847L0.176181 47.4102C0.132136 47.2777 0.110113 47.1673 0.110113 47.0348L0 26.8077C0 26.3219 0.33034 25.8802 0.792816 25.7477C0.946975 25.7036 4.60274 24.6657 7.5758 26.6089C9.49177 27.8676 10.6369 30.0096 11.0113 32.9906C11.694 38.4228 11.628 42.3755 11.6059 43.5679L15.3058 49.1326C17.53 47.4544 20.7233 47.631 22.7274 49.6626L30.5454 57.5017C31.2722 58.2304 32.4394 58.7604 33.9149 59.4449C36.5796 60.6594 40.2354 62.2935 44.2656 66.5332C50.498 73.0916 48.6701 83.691 48.4058 84.9938V89.896C48.4058 90.5143 47.9213 91.0001 47.3047 91.0001ZM28.6074 88.7919H46.2035V84.8834C46.2035 84.8834 46.2035 84.7288 46.2256 84.6626C46.2476 84.5522 48.3618 74.0632 42.6579 68.0569C38.9141 64.1263 35.6327 62.6468 32.99 61.4323C31.3823 60.7036 29.9728 60.0632 28.9598 59.0474L21.1418 51.2083C19.7764 49.8392 17.5741 49.8392 16.2087 51.2083C15.548 51.8708 15.1956 52.754 15.1956 53.6815C15.1956 54.6089 15.548 55.4922 16.2087 56.1547L27.0438 67.019C27.4843 67.4607 27.4843 68.1452 27.0438 68.5869C26.6034 69.0285 25.9207 69.0285 25.4802 68.5869L14.6451 57.7225C13.566 56.6405 12.9713 55.2052 12.9713 53.6815C12.9713 52.6657 13.2356 51.672 13.7421 50.8108L9.53581 44.4512C9.40368 44.2525 9.33761 44.0096 9.35963 43.7887C9.35963 43.7446 9.57986 39.4165 8.80907 33.2115C8.52277 30.9149 7.70793 29.3029 6.36455 28.4197C4.93308 27.4701 3.19329 27.5364 2.20227 27.6689L2.31238 46.7698L8.28052 62.6689L26.3832 80.8203C28.5854 83.0285 28.5414 84.8392 28.5194 85.038L28.5854 88.7698L28.6074 88.7919Z" fill="#46587A"/>
<path d="M66.7293 33.675C66.7293 42.1103 59.9022 48.9337 51.5116 48.9337C43.121 48.9337 36.2939 42.0882 36.2939 33.675C36.2939 25.2617 51.5116 1.104 51.5116 1.104C51.5116 1.104 66.7293 25.2397 66.7293 33.675Z" fill="#E5EEF9"/>
<path d="M51.5112 50.0379C42.5039 50.0379 35.1924 42.6845 35.1924 33.6751C35.1924 24.6656 49.9476 1.50158 50.5642 0.507886C50.7624 0.198738 51.1148 0 51.4892 0C51.8635 0 52.2159 0.198738 52.4141 0.507886C53.0528 1.50158 67.808 25.0189 67.808 33.6751C67.808 42.3312 60.4744 50.0379 51.4892 50.0379H51.5112ZM51.5112 3.20189C48.2298 8.56782 37.3946 26.8297 37.3946 33.6751C37.3946 41.4921 43.7372 47.8297 51.5112 47.8297C59.2852 47.8297 65.6277 41.47 65.6277 33.6751C65.6277 26.8297 54.7926 8.56782 51.5112 3.20189Z" fill="#46587A"/>
<path d="M51.5113 59.3123C50.8947 59.3123 50.4102 58.8265 50.4102 58.2082V1.1041C50.4102 0.485804 50.8947 0 51.5113 0C52.1279 0 52.6124 0.485804 52.6124 1.1041V58.2082C52.6124 58.8265 52.1279 59.3123 51.5113 59.3123Z" fill="#46587A"/>
<path d="M51.5113 41.227C51.225 41.227 50.9387 41.1166 50.7405 40.8958C50.3 40.4541 50.3 39.7696 50.7405 39.3279L59.4174 30.6276C59.8579 30.186 60.5406 30.186 60.981 30.6276C61.4215 31.0693 61.4215 31.7538 60.981 32.1954L52.3041 40.8958C52.0839 41.1166 51.7976 41.227 51.5333 41.227H51.5113Z" fill="#46587A"/>
<path d="M50.7625 33.1232C50.4762 33.1232 50.1899 33.0128 49.9917 32.792L43.429 26.2116C42.9885 25.7699 42.9885 25.0854 43.429 24.6437C43.8694 24.2021 44.5521 24.2021 44.9926 24.6437L51.5553 31.2242C51.9958 31.6658 51.9958 32.3504 51.5553 32.792C51.3351 33.0128 51.0488 33.1232 50.7845 33.1232H50.7625Z" fill="#46587A"/>
</svg>
