<svg width="793" height="794" viewBox="0 0 793 794" fill="none" xmlns="http://www.w3.org/2000/svg">
<path d="M790.904 438.069C792.29 424.568 793 410.867 793 397C793 383.133 792.29 369.432 790.904 355.931H627.109C591.375 355.931 555.785 363.792 520.213 372.635C515.131 373.899 510.05 375.182 504.968 376.466C469.2 385.5 433.432 394.534 397.535 396.573C424.358 372.602 456.029 353.666 487.701 334.731C523.696 313.21 559.691 291.689 588.569 262.776L704.379 146.819C696.138 136.664 687.406 126.925 678.219 117.638L675.51 114.926C666.237 105.729 656.512 96.988 646.373 88.7383L530.561 204.695C501.684 233.609 480.19 269.65 458.697 305.691C439.783 337.405 420.87 369.119 396.925 395.978C398.961 360.031 407.985 324.213 417.009 288.395C427.263 247.693 437.517 206.991 437.517 166.1V2.0985C424.034 0.710989 410.35 0 396.5 0C382.65 0 368.966 0.710989 355.483 2.0985V166.1C355.483 206.991 365.737 247.693 375.991 288.395C385.014 324.208 394.037 360.022 396.074 395.964C372.133 369.107 353.221 337.396 334.309 305.685C312.816 269.644 291.322 233.603 262.445 204.689L146.634 88.7327C136.492 96.9842 126.765 105.727 117.49 114.926L114.781 117.638C105.596 126.923 96.866 136.66 88.6265 146.812L204.438 262.769C233.315 291.683 269.31 313.204 305.305 334.725C336.98 353.662 368.654 372.599 395.479 396.574C359.578 394.536 323.805 385.501 288.032 376.466C249.922 366.84 211.811 357.214 173.546 356.049C170.995 355.971 168.443 355.931 165.891 355.931H2.09586C0.710094 369.432 0 383.133 0 397C0 410.867 0.710094 424.568 2.09586 438.069H165.891C206.73 438.069 247.381 427.802 288.032 417.534C292.53 416.398 297.027 415.262 301.525 414.14C332.798 406.339 364.082 399.21 395.465 397.427C368.642 421.398 336.971 440.334 305.3 459.269C269.304 480.79 233.309 502.31 204.431 531.224L88.6209 647.181C96.8614 657.335 105.593 667.074 114.779 676.36L117.491 679.076C126.764 688.272 136.489 697.013 146.627 705.262L262.439 589.305C291.316 560.391 312.81 524.35 334.303 488.309C353.217 456.595 372.13 424.881 396.075 398.022C394.039 433.968 385.015 469.787 375.991 505.605C365.737 546.307 355.483 587.009 355.483 627.9V791.901C368.966 793.289 382.65 794 396.5 794C410.35 794 424.034 793.289 437.517 791.901V627.9C437.517 587.009 427.263 546.307 417.009 505.605C407.986 469.792 398.963 433.978 396.926 398.036C420.867 424.893 439.779 456.604 458.691 488.315C480.184 524.356 501.678 560.397 530.555 589.311L646.366 705.267C656.507 697.016 666.233 688.274 675.509 679.076L678.221 676.36C687.405 667.076 696.135 657.339 704.374 647.188L588.562 531.231C559.685 502.317 523.69 480.796 487.694 459.275C456.02 440.338 424.346 421.401 397.521 397.426C428.909 399.208 460.198 406.338 491.475 414.14C495.955 415.258 500.448 416.393 504.928 417.524L504.968 417.534C543.079 427.16 581.189 436.786 619.454 437.951C622.005 438.029 624.557 438.069 627.109 438.069H790.904Z" fill="#E5EEF9"/>
</svg>
