<svg width="18" height="11" viewBox="0 0 18 11" fill="none" xmlns="http://www.w3.org/2000/svg">
<path d="M17.4816 0.709678C17.5936 0.23656 17.4816 0 16.9212 0H14.9041C14.4559 0 14.2318 0.236559 14.0077 0.591398C14.0077 0.591398 12.9991 3.07527 11.5423 4.73118C11.0941 5.2043 10.8699 5.32258 10.6458 5.32258C10.5338 5.32258 10.3096 5.2043 10.3096 4.73118V0.709678C10.3096 0.23656 10.1976 0 9.74933 0H6.61161C6.27543 0 6.16337 0.236559 6.16337 0.473118C6.16337 0.946236 6.83573 1.06452 6.9478 2.48387V5.44086C6.9478 6.15054 6.83573 6.26882 6.61161 6.26882C5.93924 6.26882 4.37039 3.78495 3.36184 0.827957C3.36184 0.236559 3.13771 0 2.68947 0H0.672367C0.112061 0 0 0.236559 0 0.591398C0 1.1828 0.672368 3.78495 3.13771 7.33333C4.70657 9.69893 7.05986 11 9.07696 11C10.3096 11 10.5338 10.7634 10.5338 10.172V8.39785C10.5338 7.80645 10.6458 7.68817 11.0941 7.68817C11.4302 7.68817 11.8785 7.80645 12.9991 8.98925C14.3438 10.4086 14.568 11 15.2403 11H17.2574C17.8177 11 18.1539 10.7634 17.9298 10.172C17.7057 9.58065 17.1454 8.75269 16.2489 7.80645C15.8006 7.21505 15.1283 6.62366 14.9041 6.3871C14.568 6.03226 14.68 5.7957 14.9041 5.44086C14.9041 5.32258 17.2574 1.89247 17.4816 0.709678Z" fill="#012A49"/>
</svg>
