<svg width="2" height="501" viewBox="0 0 2 501" fill="none" xmlns="http://www.w3.org/2000/svg">
<path opacity="0.5" d="M1.50003 15.3431C1.28096 10.3038 1.06188 5.2644 1.01106 0.20721L1.00007 0L0.988867 0.151716L0.989687 0.146382C0.940023 5.22403 0.720065 10.2836 0.500109 15.3432C0.250127 21.0933 0.000145098 26.8435 0.000145098 32.6203V55.7896C-7.25189e-05 55.8886 -3.66126e-08 55.9878 7.25847e-05 56.0869C0.000108843 56.1365 0.000145098 56.186 0.000145098 56.2355V79.4048C-7.25195e-05 79.5038 -3.66126e-08 79.603 7.25853e-05 79.7021C0.000108845 79.7517 0.000145098 79.8012 0.000145098 79.8507V103.02C-7.25195e-05 103.119 -3.66126e-08 103.218 7.25853e-05 103.317C0.000108845 103.367 0.000145098 103.416 0.000145098 103.466V126.635C-7.25195e-05 126.734 -3.66126e-08 126.833 7.25853e-05 126.932C0.000108845 126.982 0.000145098 127.032 0.000145098 127.081V150.25C-7.25183e-05 150.349 -3.66126e-08 150.449 7.25841e-05 150.548C0.000108844 150.597 0.000145098 150.647 0.000145098 150.696V173.866C-7.25183e-05 173.965 -3.66126e-08 174.064 7.25841e-05 174.163C0.000108844 174.212 0.000145098 174.262 0.000145098 174.311V197.481C-7.2517e-05 197.58 -3.66126e-08 197.679 7.25828e-05 197.778C0.000108843 197.828 0.000145098 197.877 0.000145098 197.927V221.096C-7.25208e-05 221.195 -3.66126e-08 221.294 7.25865e-05 221.393C0.000108846 221.443 0.000145098 221.492 0.000145098 221.542V244.711C-7.25208e-05 244.81 -3.66126e-08 244.909 7.25865e-05 245.008C0.000108846 245.058 0.000145098 245.108 0.000145098 245.157V268.326C-7.2517e-05 268.425 -3.66126e-08 268.525 7.25828e-05 268.624C0.000108827 268.673 0.000145098 268.723 0.000145098 268.772V291.942C-7.2517e-05 292.041 -3.66126e-08 292.14 7.25828e-05 292.239C0.000108827 292.288 0.000145098 292.338 0.000145098 292.387V315.557C-7.25245e-05 315.656 -3.66126e-08 315.755 7.25903e-05 315.854C0.000108848 315.904 0.000145098 315.953 0.000145098 316.003V339.172C-7.2517e-05 339.271 -3.66126e-08 339.37 7.25828e-05 339.469C0.000108827 339.519 0.000145098 339.568 0.000145098 339.618V362.787C-7.25245e-05 362.886 -3.66126e-08 362.985 7.25903e-05 363.084C0.000108848 363.134 0.000145098 363.183 0.000145098 363.233V386.402C-7.25195e-05 386.501 -3.66126e-08 386.6 7.25853e-05 386.7C0.000108845 386.749 0.000145098 386.799 0.000145098 386.848V410.017C-7.2527e-05 410.116 -3.66126e-08 410.216 7.25927e-05 410.315C0.000108837 410.364 0.000145098 410.414 0.000145098 410.463V433.633C-7.25195e-05 433.732 -3.66126e-08 433.831 7.25853e-05 433.93C0.000108845 433.98 0.000145098 434.029 0.000145098 434.079V457.248C-7.2527e-05 457.347 -3.66126e-08 457.446 7.25927e-05 457.545C0.000108837 457.595 0.000145098 457.644 0.000145098 457.694V480.863C-7.25195e-05 480.962 -3.66126e-08 481.061 7.25853e-05 481.16C0.000108845 481.21 0.000145098 481.259 0.000145098 481.309V501H1.99958L2 481.309C2 481.16 1.99983 481.012 1.99951 480.863L2 457.694C2 457.545 1.99983 457.397 1.99951 457.248L2 434.079C2 433.93 1.99983 433.781 1.99951 433.633L2 410.463C2 410.315 1.99983 410.166 1.99951 410.018L2 386.848C2 386.7 1.99983 386.551 1.99951 386.403L2 363.233C2 363.084 1.99983 362.936 1.99951 362.787L2 339.618C2 339.469 1.99983 339.321 1.99951 339.172L2 316.003C2 315.854 1.99983 315.706 1.99951 315.557L2 292.387C2 292.239 1.99983 292.09 1.99951 291.942L2 268.772C2 268.624 1.99983 268.475 1.99951 268.327L2 245.157C2 245.008 1.99983 244.86 1.99951 244.711L2 221.542C2 221.393 1.99983 221.245 1.99951 221.096L2 197.927C2 197.778 1.99983 197.63 1.99951 197.481L2 174.311C2 174.163 1.99983 174.014 1.99951 173.866L2 150.696C2 150.548 1.99983 150.399 1.99951 150.251L2 127.081C2 126.933 1.99983 126.784 1.99951 126.635L2 103.466C2 103.317 1.99983 103.169 1.99951 103.02L2 79.8507C2 79.7021 1.99983 79.5536 1.99951 79.4051L2 56.2355C2 56.087 1.99983 55.9384 1.99951 55.7899L2 32.6203C2 26.8435 1.75002 21.0933 1.50003 15.3431Z" fill="white"/>
</svg>
