<svg width="114" height="100" viewBox="0 0 114 100" fill="none" xmlns="http://www.w3.org/2000/svg">
<path d="M57.1944 56.0093C61.0621 59.3776 65.6224 62.0428 70.1827 64.7079C75.3863 67.749 80.59 70.7901 84.7647 74.8759L101.508 91.2631C100.271 92.7507 98.9452 94.1908 97.5295 95.5764C96.1137 96.962 94.6423 98.26 93.1224 99.4703L76.379 83.0832C72.2043 78.9974 69.0971 73.9045 65.9899 68.8116C63.256 64.3304 60.5219 59.8491 57.0608 56.054C57.0609 56.0564 57.0611 56.0588 57.0612 56.0611L56.9986 55.9078L57.1944 56.0093Z" fill="white"/>
<path d="M57.2106 55.9341C62.3502 55.6291 67.4717 54.3146 72.5931 53C78.437 51.5 84.281 50 90.1519 50L113.699 50C113.898 51.9724 114 53.9741 114 56C114 58.0259 113.898 60.0276 113.699 62L90.1519 62C84.2809 62 78.4371 60.5 72.5932 59C67.4512 57.6802 62.3092 56.3603 57.1488 56.0623C57.1506 56.064 57.1524 56.0656 57.1542 56.0672L57 56L57.2106 55.9341Z" fill="white"/>
<path d="M57.1051 55.7152C60.5466 51.9298 63.2697 47.4665 65.9928 43.0032C69.1 37.9103 72.2072 32.8173 76.3818 28.7315L93.1253 12.3444C94.6452 13.5547 96.1166 14.8527 97.5324 16.2383C98.9481 17.6239 100.274 19.064 101.511 20.5516L84.7675 36.9388C80.5929 41.0246 75.3893 44.0657 70.1857 47.1068C65.6071 49.7826 61.0284 52.4584 57.1508 55.846C57.1532 55.8458 57.1556 55.8457 57.1581 55.8455L57.0014 55.9069L57.1051 55.7152Z" fill="white"/>
<path d="M56.9341 55.7931C56.6291 50.7437 55.3146 45.712 54 40.6805C52.5 34.9391 51 29.1977 51 23.4297L51 0.296017C52.9724 0.100292 54.9741 -3.40032e-07 57 -5.13377e-07C59.0259 -6.86721e-07 61.0276 0.100291 63 0.296016L63 23.4297C63 29.1977 61.5 34.939 60 40.6804C58.6802 45.7322 57.3603 50.784 57.0623 55.8538C57.064 55.8521 57.0656 55.8503 57.0672 55.8485L57 56L56.9341 55.7931Z" fill="white"/>
<path d="M56.8017 55.8066C52.934 52.4383 48.3737 49.7731 43.8134 47.108C38.6097 44.067 33.4061 41.0258 29.2314 36.94L12.488 20.5529C13.7247 19.0652 15.0509 17.6252 16.4666 16.2395C17.8824 14.8539 19.3537 13.5559 20.8737 12.3456L37.6171 28.7327C41.7918 32.8185 44.899 37.9114 48.0061 43.0044C50.7401 47.4855 53.4742 51.9668 56.9353 55.7619C56.9352 55.7595 56.935 55.7572 56.9349 55.7548L56.9975 55.9081L56.8017 55.8066Z" fill="white"/>
<path d="M56.7894 56.0659C51.6498 56.3709 46.5283 57.6854 41.4069 59C35.563 60.5 29.719 62 23.8481 62L0.3013 62C0.102081 60.0276 -5.32465e-07 58.0259 -8.0391e-07 56C-1.07536e-06 53.9741 0.10208 51.9724 0.301298 50L23.8481 50C29.7191 50 35.5629 51.5 41.4068 53C46.5488 54.3198 51.6908 55.6397 56.8512 55.9377C56.8494 55.936 56.8476 55.9344 56.8458 55.9328L57 56L56.7894 56.0659Z" fill="white"/>
<path d="M56.8949 56.099C53.4534 59.8844 50.7303 64.3477 48.0072 68.811C44.9 73.9039 41.7928 78.9969 37.6182 83.0827L20.8747 99.4699C19.3548 98.2595 17.8834 96.9615 16.4677 95.5759C15.0519 94.1903 13.7257 92.7502 12.489 91.2626L29.2325 74.8754C33.4071 70.7896 38.6107 67.7485 43.8143 64.7074C48.3929 62.0316 52.9716 59.3558 56.8492 55.9683C56.8468 55.9684 56.8444 55.9685 56.8419 55.9687L56.9986 55.9073L56.8949 56.099Z" fill="white"/>
</svg>
