<svg width="235" height="41" viewBox="0 0 235 41" fill="none" xmlns="http://www.w3.org/2000/svg">
<path d="M54 33.5405V10.5676H57.2319L57.4627 14.1514C58.2938 12.7423 59.371 11.7162 60.6946 11.073C62.0489 10.4297 63.434 10.1081 64.8498 10.1081C66.4811 10.1081 68.0201 10.4757 69.4668 11.2108C70.9134 11.9459 72.0215 13.0793 72.791 14.6108C73.2834 13.5694 73.976 12.727 74.8686 12.0838C75.7612 11.4099 76.7307 10.9198 77.7773 10.6135C78.8545 10.2766 79.8703 10.1081 80.8244 10.1081C82.3019 10.1081 83.7023 10.4144 85.0259 11.027C86.3802 11.6396 87.4882 12.5892 88.3501 13.8757C89.2119 15.1622 89.6428 16.8162 89.6428 18.8378V33.5405H85.9492V19.2054C85.9492 17.1225 85.426 15.6216 84.3795 14.7027C83.333 13.7838 82.0402 13.3243 80.5012 13.3243C79.3008 13.3243 78.1774 13.6153 77.1309 14.1973C76.0844 14.7793 75.2379 15.6369 74.5916 16.7703C73.976 17.9036 73.6682 19.2973 73.6682 20.9514V33.5405H69.9746V19.2054C69.9746 17.1225 69.4514 15.6216 68.4049 14.7027C67.3584 13.7838 66.0656 13.3243 64.5266 13.3243C63.5109 13.3243 62.4644 13.6 61.3871 14.1514C60.3406 14.6721 59.4634 15.5144 58.7555 16.6784C58.0475 17.8423 57.6936 19.3739 57.6936 21.273V33.5405H54Z" fill="#012A49"/>
<path d="M104.423 34C102.237 34 100.283 33.5252 98.5593 32.5757C96.8664 31.6261 95.5429 30.2631 94.5887 28.4865C93.6345 26.6793 93.1574 24.5351 93.1574 22.0541C93.1574 19.573 93.6345 17.4441 94.5887 15.6676C95.5429 13.8604 96.851 12.482 98.5131 11.5324C100.175 10.5829 102.068 10.1081 104.192 10.1081C106.347 10.1081 108.178 10.5676 109.686 11.4865C111.225 12.4054 112.395 13.6613 113.195 15.2541C113.995 16.8162 114.395 18.5775 114.395 20.5378C114.395 21.0586 114.38 21.5333 114.349 21.9622C114.318 22.391 114.272 22.7739 114.211 23.1108H95.5583V19.8486H112.595L110.702 20.2162C110.702 18.0108 110.086 16.3108 108.855 15.1162C107.655 13.9216 106.069 13.3243 104.1 13.3243C102.591 13.3243 101.283 13.6766 100.175 14.3811C99.0979 15.055 98.2515 16.0504 97.6359 17.3676C97.0511 18.6541 96.7587 20.2162 96.7587 22.0541C96.7587 23.8613 97.0665 25.4234 97.682 26.7405C98.2976 28.0577 99.1595 29.0685 100.268 29.773C101.406 30.4468 102.761 30.7838 104.33 30.7838C106.023 30.7838 107.393 30.4622 108.44 29.8189C109.517 29.1757 110.379 28.3027 111.025 27.2L113.934 28.9C113.349 29.9414 112.595 30.845 111.671 31.6108C110.779 32.3766 109.717 32.9739 108.486 33.4027C107.285 33.8009 105.931 34 104.423 34Z" fill="#012A49"/>
<path d="M127.191 34C125.283 34 123.528 33.5252 121.928 32.5757C120.327 31.6261 119.05 30.2631 118.096 28.4865C117.142 26.6793 116.665 24.5351 116.665 22.0541C116.665 19.5117 117.172 17.3523 118.188 15.5757C119.204 13.7991 120.543 12.4514 122.205 11.5324C123.867 10.5829 125.652 10.1081 127.561 10.1081C129.469 10.1081 131.116 10.5982 132.501 11.5784C133.917 12.5586 134.855 13.8604 135.317 15.4838L134.855 15.8054V0H138.549V33.5405H135.317L134.994 27.9811L135.502 27.7054C135.286 29.0532 134.763 30.2018 133.932 31.1514C133.132 32.0703 132.131 32.7748 130.931 33.2649C129.761 33.755 128.515 34 127.191 34ZM127.561 30.7838C129.038 30.7838 130.315 30.4162 131.393 29.6811C132.501 28.9459 133.347 27.9045 133.932 26.5568C134.547 25.1784 134.855 23.5703 134.855 21.7324C134.855 19.9865 134.547 18.4856 133.932 17.2297C133.347 15.9739 132.516 15.009 131.439 14.3351C130.392 13.6613 129.161 13.3243 127.745 13.3243C125.406 13.3243 123.59 14.1207 122.297 15.7135C121.004 17.3063 120.358 19.4198 120.358 22.0541C120.358 24.6883 120.989 26.8018 122.251 28.3946C123.513 29.9874 125.283 30.7838 127.561 30.7838Z" fill="#012A49"/>
<path d="M153.459 10.1081C155.06 10.1081 156.46 10.3532 157.661 10.8432C158.892 11.3333 159.954 12.0378 160.847 12.9568C161.739 13.8757 162.462 14.9631 163.016 16.2189L159.508 17.873C159.015 16.4027 158.261 15.2847 157.245 14.5189C156.26 13.7225 154.968 13.3243 153.367 13.3243C151.828 13.3243 150.505 13.6766 149.396 14.3811C148.288 15.055 147.442 16.0504 146.857 17.3676C146.272 18.6541 145.98 20.2162 145.98 22.0541C145.98 23.8613 146.272 25.4234 146.857 26.7405C147.442 28.0577 148.288 29.0685 149.396 29.773C150.505 30.4468 151.828 30.7838 153.367 30.7838C154.567 30.7838 155.599 30.6 156.46 30.2324C157.353 29.8649 158.076 29.3288 158.63 28.6243C159.215 27.9198 159.615 27.0622 159.831 26.0514L163.247 27.2459C162.724 28.655 162.001 29.8649 161.077 30.8757C160.185 31.8865 159.092 32.6676 157.799 33.2189C156.537 33.7396 155.091 34 153.459 34C151.305 34 149.381 33.5252 147.688 32.5757C145.995 31.6261 144.672 30.2631 143.718 28.4865C142.763 26.6793 142.286 24.5351 142.286 22.0541C142.286 19.573 142.763 17.4441 143.718 15.6676C144.672 13.8604 145.995 12.482 147.688 11.5324C149.381 10.5829 151.305 10.1081 153.459 10.1081Z" fill="#012A49"/>
<path d="M179.987 18.7C179.987 16.9847 179.525 15.6676 178.602 14.7486C177.678 13.7991 176.37 13.3243 174.677 13.3243C173.077 13.3243 171.723 13.6766 170.615 14.3811C169.507 15.055 168.691 16.1577 168.168 17.6892L165.167 15.8514C165.782 14.136 166.921 12.7577 168.583 11.7162C170.245 10.6441 172.307 10.1081 174.77 10.1081C176.432 10.1081 177.94 10.3991 179.294 10.9811C180.649 11.5324 181.711 12.3901 182.48 13.5541C183.28 14.6874 183.681 16.1577 183.681 17.9649V29.0838C183.681 30.1865 184.265 30.7378 185.435 30.7378C186.02 30.7378 186.589 30.6613 187.143 30.5081L186.959 33.4027C186.343 33.709 185.543 33.8622 184.558 33.8622C183.665 33.8622 182.865 33.6937 182.157 33.3568C181.449 33.0198 180.895 32.5144 180.495 31.8405C180.095 31.136 179.895 30.2631 179.895 29.2216V28.7622L180.818 28.9C180.449 30.0946 179.818 31.0748 178.925 31.8405C178.032 32.5757 177.032 33.127 175.924 33.4946C174.816 33.8315 173.723 34 172.646 34C171.292 34 170.03 33.7703 168.86 33.3108C167.691 32.8513 166.752 32.1622 166.044 31.2432C165.367 30.2937 165.028 29.1297 165.028 27.7514C165.028 26.036 165.598 24.627 166.736 23.5243C167.906 22.391 169.522 21.6252 171.584 21.227L180.726 19.4351V22.4676L173.292 23.9838C171.784 24.2901 170.661 24.7189 169.922 25.2703C169.183 25.8216 168.814 26.5874 168.814 27.5676C168.814 28.5171 169.183 29.2982 169.922 29.9108C170.692 30.4928 171.769 30.7838 173.154 30.7838C174.047 30.7838 174.893 30.6766 175.693 30.4622C176.524 30.2171 177.263 29.8649 177.909 29.4054C178.556 28.9153 179.064 28.318 179.433 27.6135C179.802 26.8784 179.987 26.0207 179.987 25.0405V18.7Z" fill="#012A49"/>
<path d="M189.424 33.5405V10.5676H192.656L192.979 15.7135L192.379 15.2081C192.872 13.9829 193.533 13.0027 194.364 12.2676C195.195 11.5018 196.15 10.9504 197.227 10.6135C198.335 10.2766 199.474 10.1081 200.643 10.1081C202.306 10.1081 203.814 10.4297 205.168 11.073C206.522 11.6856 207.6 12.6351 208.4 13.9216C209.231 15.2081 209.646 16.8468 209.646 18.8378V33.5405H205.953V20.1243C205.953 17.582 205.399 15.8207 204.291 14.8405C203.214 13.8297 201.875 13.3243 200.274 13.3243C199.166 13.3243 198.058 13.5847 196.95 14.1054C195.842 14.6261 194.918 15.4685 194.18 16.6324C193.472 17.7964 193.118 19.3586 193.118 21.3189V33.5405H189.424Z" fill="#012A49"/>
<path d="M214.778 33.5405V10.5676H218.01L218.333 15.7135L217.733 15.2081C218.225 13.9829 218.887 13.0027 219.718 12.2676C220.549 11.5018 221.503 10.9504 222.58 10.6135C223.689 10.2766 224.827 10.1081 225.997 10.1081C227.659 10.1081 229.167 10.4297 230.522 11.073C231.876 11.6856 232.953 12.6351 233.753 13.9216C234.584 15.2081 235 16.8468 235 18.8378V33.5405H231.306V20.1243C231.306 17.582 230.752 15.8207 229.644 14.8405C228.567 13.8297 227.228 13.3243 225.628 13.3243C224.52 13.3243 223.411 13.5847 222.303 14.1054C221.195 14.6261 220.272 15.4685 219.533 16.6324C218.825 17.7964 218.471 19.3586 218.471 21.3189V33.5405H214.778Z" fill="#012A49"/>
<path d="M37.8996 23.9655C37.966 23.3194 38 22.6637 38 22C38 21.3363 37.966 20.6806 37.8996 20.0345H30.0506C28.3383 20.0345 26.6328 20.4107 24.9282 20.8339C24.6847 20.8944 24.4412 20.9558 24.1977 21.0172C22.4837 21.4496 20.7697 21.882 19.0496 21.9796C20.3349 20.8323 21.8526 19.9261 23.3703 19.0199C25.0951 17.9899 26.82 16.9599 28.2038 15.5762L33.7533 10.0266C33.3584 9.54062 32.94 9.07451 32.4998 8.63003L32.37 8.50022C31.9256 8.06009 31.4596 7.64174 30.9737 7.24692L25.4241 12.7965C24.0403 14.1803 23.0104 15.9052 21.9804 17.63C21.0741 19.1479 20.1678 20.6657 19.0204 21.9511C19.1179 20.2307 19.5503 18.5165 19.9828 16.8023C20.4741 14.8543 20.9655 12.9064 20.9655 10.9494V3.10043C20.3194 3.03403 19.6637 3 19 3C18.3363 3 17.6806 3.03403 17.0345 3.10043V10.9494C17.0345 12.9063 17.5259 14.8543 18.0172 16.8023C18.4496 18.5163 18.882 20.2303 18.9796 21.9504C17.8323 20.6651 16.9261 19.1474 16.0199 17.6297C14.9899 15.9049 13.96 14.18 12.5762 12.7962L7.02661 7.24665C6.54061 7.64156 6.0745 8.06 5.63001 8.50024L5.50024 8.63001C5.0601 9.0744 4.64175 9.5404 4.24692 10.0263L9.7965 15.5759C11.1803 16.9596 12.9052 17.9896 14.63 19.0196C16.1478 19.9259 17.6657 20.8322 18.9511 21.9796C17.2307 21.8821 15.5165 21.4497 13.8023 21.0172C11.9761 20.5566 10.1498 20.0959 8.31621 20.0401C8.19396 20.0364 8.07169 20.0345 7.94938 20.0345H0.100432C0.0340272 20.6806 0 21.3363 0 22C0 22.6637 0.0340272 23.3194 0.100432 23.9655H7.94938C9.90634 23.9655 11.8543 23.4741 13.8023 22.9828C14.0178 22.9284 14.2333 22.874 14.4489 22.8203C15.9474 22.447 17.4466 22.1058 18.9504 22.0204C17.6651 23.1677 16.1474 24.0739 14.6298 24.9801C12.9049 26.0101 11.18 27.04 9.79621 28.4238L4.24665 33.9734C4.64153 34.4594 5.05994 34.9254 5.50014 35.3699L5.63011 35.4999C6.07446 35.94 6.54043 36.3583 7.02628 36.7531L12.5759 31.2035C13.9597 29.8197 14.9896 28.0948 16.0196 26.37C16.9259 24.8521 17.8322 23.3343 18.9796 22.0489C18.8821 23.7693 18.4497 25.4835 18.0172 27.1977C17.5259 29.1457 17.0345 31.0936 17.0345 33.0506V40.8996C17.6806 40.966 18.3363 41 19 41C19.6637 41 20.3194 40.966 20.9655 40.8996V33.0506C20.9655 31.0936 20.4741 29.1457 19.9828 27.1977C19.5504 25.4837 19.118 23.7697 19.0204 22.0496C20.1677 23.3349 21.0739 24.8526 21.9801 26.3703C23.0101 28.0951 24.04 29.82 25.4238 31.2038L30.9734 36.7533C31.4594 36.3585 31.9254 35.9401 32.3699 35.4999L32.4999 35.3699C32.94 34.9255 33.3583 34.4596 33.7531 33.9737L28.2035 28.4241C26.8197 27.0403 25.0948 26.0104 23.37 24.9804C21.8521 24.0741 20.3343 23.1678 19.0489 22.0204C20.553 22.1057 22.0523 22.4469 23.5511 22.8203C23.7658 22.8738 23.9811 22.9281 24.1958 22.9823L24.1977 22.9828C26.0239 23.4434 27.8502 23.9041 29.6838 23.9599C29.806 23.9636 29.9283 23.9655 30.0506 23.9655H37.8996Z" fill="#012A49"/>
</svg>
